REM DIRINDEX 1\2\3,1\2\4,1\2\5,1\2\6
REM DIRNAME cjc157,folder01,folder02,folder03,folder04,folder05
TITLE ""
FILE "140 140.mp3" MP3
  TRACK 01 AUDIO
    TITLE "0:"
    INDEX 01 00:00:00
  TRACK 02 AUDIO
    TITLE "3:cjc157_5237"
    INDEX 01 00:00:07
  TRACK 03 AUDIO
    TITLE "0:"
    INDEX 01 00:01:21
  TRACK 04 AUDIO
    TITLE "4:cjc157_5238"
    INDEX 01 00:01:62
  TRACK 05 AUDIO
    TITLE "0:"
    INDEX 01 00:03:23
  TRACK 06 AUDIO
    TITLE "5:cjc157_5239"
    INDEX 01 00:03:64
  TRACK 07 AUDIO
    TITLE "0:"
    INDEX 01 00:05:56
  TRACK 08 AUDIO
    TITLE "5:cjc157_5240"
    INDEX 01 00:06:26
  TRACK 09 AUDIO
    TITLE "0:"
    INDEX 01 00:08:58
  TRACK 10 AUDIO
    TITLE "5:cjc157_5241"
    INDEX 01 00:09:24
  TRACK 11 AUDIO
    TITLE "0:"
    INDEX 01 00:12:40
  TRACK 12 AUDIO
    TITLE "3:cjc157_5242"
    INDEX 01 00:13:12
  TRACK 13 AUDIO
    TITLE "0:"
    INDEX 01 00:14:37
  TRACK 14 AUDIO
    TITLE "4:cjc157_5243"
    INDEX 01 00:15:07
  TRACK 15 AUDIO
    TITLE "0:"
    INDEX 01 00:16:30
  TRACK 16 AUDIO
    TITLE "5:cjc157_5244"
    INDEX 01 00:17:04
  TRACK 17 AUDIO
    TITLE "0:"
    INDEX 01 00:20:00
  TRACK 18 AUDIO
    TITLE "5:cjc157_5245"
    INDEX 01 00:20:45
  TRACK 19 AUDIO
    TITLE "0:"
    INDEX 01 00:22:36
  TRACK 20 AUDIO
    TITLE "3:cjc157_5246"
    INDEX 01 00:23:08
  TRACK 21 AUDIO
    TITLE "0:"
    INDEX 01 00:24:20
  TRACK 22 AUDIO
    TITLE "4:cjc157_5247"
    INDEX 01 00:24:65
  TRACK 23 AUDIO
    TITLE "0:"
    INDEX 01 00:26:01
  TRACK 24 AUDIO
    TITLE "5:cjc157_5248"
    INDEX 01 00:26:48
  TRACK 25 AUDIO
    TITLE "0:"
    INDEX 01 00:28:72
  TRACK 26 AUDIO
    TITLE "5:cjc157_5249"
    INDEX 01 00:29:44
  TRACK 27 AUDIO
    TITLE "0:"
    INDEX 01 00:31:29
  TRACK 28 AUDIO
    TITLE "3:cjc157_5250"
    INDEX 01 00:32:03
  TRACK 29 AUDIO
    TITLE "0:"
    INDEX 01 00:33:21
  TRACK 30 AUDIO
    TITLE "4:cjc157_5251"
    INDEX 01 00:33:60
  TRACK 31 AUDIO
    TITLE "0:"
    INDEX 01 00:34:69
  TRACK 32 AUDIO
    TITLE "5:cjc157_5252"
    INDEX 01 00:35:45
  TRACK 33 AUDIO
    TITLE "0:"
    INDEX 01 00:39:31
  TRACK 34 AUDIO
    TITLE "5:cjc157_5253"
    INDEX 01 00:40:03
  TRACK 35 AUDIO
    TITLE "0:"
    INDEX 01 00:41:53
  TRACK 36 AUDIO
    TITLE "3:cjc157_5254"
    INDEX 01 00:42:25
  TRACK 37 AUDIO
    TITLE "0:"
    INDEX 01 00:43:50
  TRACK 38 AUDIO
    TITLE "4:cjc157_5255"
    INDEX 01 00:44:20
  TRACK 39 AUDIO
    TITLE "0:"
    INDEX 01 00:45:33
  TRACK 40 AUDIO
    TITLE "5:cjc157_5256"
    INDEX 01 00:46:07
  TRACK 41 AUDIO
    TITLE "0:"
    INDEX 01 00:48:02
  TRACK 42 AUDIO
    TITLE "5:cjc157_5257"
    INDEX 01 00:48:49
  TRACK 43 AUDIO
    TITLE "0:"
    INDEX 01 00:51:05
  TRACK 44 AUDIO
    TITLE "3:cjc157_5258"
    INDEX 01 00:51:58
  TRACK 45 AUDIO
    TITLE "0:"
    INDEX 01 00:53:13
  TRACK 46 AUDIO
    TITLE "4:cjc157_5259"
    INDEX 01 00:53:57
  TRACK 47 AUDIO
    TITLE "0:"
    INDEX 01 00:54:62
  TRACK 48 AUDIO
    TITLE "5:cjc157_5260"
    INDEX 01 00:55:44
  TRACK 49 AUDIO
    TITLE "0:"
    INDEX 01 00:58:09
  TRACK 50 AUDIO
    TITLE "3:cjc157_5261"
    INDEX 01 00:58:58
  TRACK 51 AUDIO
    TITLE "0:"
    INDEX 01 01:00:06
  TRACK 52 AUDIO
    TITLE "4:cjc157_5262"
    INDEX 01 01:00:51
  TRACK 53 AUDIO
    TITLE "0:"
    INDEX 01 01:01:60
  TRACK 54 AUDIO
    TITLE "5:cjc157_5263"
    INDEX 01 01:02:30
  TRACK 55 AUDIO
    TITLE "0:"
    INDEX 01 01:05:40
  TRACK 56 AUDIO
    TITLE "5:cjc157_5264"
    INDEX 01 01:06:10
  TRACK 57 AUDIO
    TITLE "0:"
    INDEX 01 01:09:03
  TRACK 58 AUDIO
    TITLE "5:cjc157_5265"
    INDEX 01 01:09:46
  TRACK 59 AUDIO
    TITLE "0:"
    INDEX 01 01:12:30
  TRACK 60 AUDIO
    TITLE "3:cjc157_5266"
    INDEX 01 01:13:04
  TRACK 61 AUDIO
    TITLE "0:"
    INDEX 01 01:14:23
  TRACK 62 AUDIO
    TITLE "4:cjc157_5267"
    INDEX 01 01:14:70
  TRACK 63 AUDIO
    TITLE "0:"
    INDEX 01 01:16:16
  TRACK 64 AUDIO
    TITLE "5:cjc157_5268"
    INDEX 01 01:16:61
  TRACK 65 AUDIO
    TITLE "0:"
    INDEX 01 01:18:72
  TRACK 66 AUDIO
    TITLE "5:cjc157_5269"
    INDEX 01 01:19:42
  TRACK 67 AUDIO
    TITLE "0:"
    INDEX 01 01:21:72
  TRACK 68 AUDIO
    TITLE "3:cjc157_5270"
    INDEX 01 01:22:44
  TRACK 69 AUDIO
    TITLE "0:"
    INDEX 01 01:23:69
  TRACK 70 AUDIO
    TITLE "4:cjc157_5271"
    INDEX 01 01:24:39
  TRACK 71 AUDIO
    TITLE "0:"
    INDEX 01 01:25:57
  TRACK 72 AUDIO
    TITLE "5:cjc157_5272"
    INDEX 01 01:26:27
  TRACK 73 AUDIO
    TITLE "0:"
    INDEX 01 01:28:31
  TRACK 74 AUDIO
    TITLE "3:cjc157_5273"
    INDEX 01 01:28:74
  TRACK 75 AUDIO
    TITLE "0:"
    INDEX 01 01:30:42
  TRACK 76 AUDIO
    TITLE "4:cjc157_5274"
    INDEX 01 01:31:08
  TRACK 77 AUDIO
    TITLE "0:"
    INDEX 01 01:32:47
  TRACK 78 AUDIO
    TITLE "5:cjc157_5275"
    INDEX 01 01:33:17
  TRACK 79 AUDIO
    TITLE "0:"
    INDEX 01 01:36:17
